# Blender v3.1.2 OBJ File: 'peg_person.blend'
# www.blender.org
o peg_person
v -0.012427 0.062583 0.012427
v -0.012427 0.062583 -0.012427
v 0.012427 0.062583 0.012427
v 0.012427 0.062583 -0.012427
v -0.015191 0.050296 0.015191
v -0.014201 0.057741 0.014202
v -0.014139 0.064516 0.007302
v -0.015191 0.065487 0.000000
v -0.014139 0.064516 -0.007302
v -0.014201 0.057741 -0.014202
v -0.015191 0.050296 -0.015191
v -0.007302 0.064516 -0.014139
v 0.000000 0.065487 -0.015191
v 0.007303 0.064516 -0.014139
v 0.014202 0.057741 -0.014202
v 0.015192 0.050296 -0.015191
v 0.014139 0.064516 -0.007302
v 0.015192 0.065487 0.000000
v 0.014139 0.064516 0.007302
v 0.014202 0.057741 0.014202
v 0.015192 0.050296 0.015191
v 0.007303 0.064516 0.014139
v 0.000000 0.065487 0.015191
v -0.007302 0.064516 0.014139
v -0.019792 0.050296 0.008326
v -0.018284 0.058326 0.007819
v -0.021484 0.050296 0.000000
v -0.019793 0.058622 0.000000
v -0.019792 0.050296 -0.008326
v -0.018284 0.058326 -0.007819
v -0.008325 0.050296 -0.019793
v -0.007818 0.058326 -0.018284
v 0.000000 0.050296 -0.021484
v 0.000000 0.058622 -0.019793
v -0.008325 0.000000 0.019793
v 0.008326 0.050296 -0.019793
v 0.007819 0.058326 -0.018284
v 0.000000 0.000000 0.021484
v 0.019793 0.050296 -0.008326
v 0.018284 0.058326 -0.007819
v 0.008326 0.000000 0.019793
v 0.021484 0.050296 0.000000
v 0.019793 0.058622 0.000000
v 0.019793 0.000000 0.008326
v 0.019793 0.050296 0.008326
v 0.018284 0.058326 0.007819
v 0.021484 0.000000 0.000000
v 0.008326 0.050296 0.019793
v 0.007819 0.058326 0.018284
v 0.019793 0.000000 -0.008326
v 0.000000 0.050296 0.021484
v 0.000000 0.058622 0.019793
v 0.008326 0.000000 -0.019793
v -0.008325 0.050296 0.019793
v -0.007818 0.058326 0.018284
v 0.000000 0.000000 -0.021484
v -0.008325 0.000000 -0.019793
v -0.019792 0.000000 -0.008326
v -0.021484 0.000000 0.000000
v -0.019792 0.000000 0.008326
v 0.015192 0.000000 0.015191
v 0.015192 0.000000 -0.015191
v -0.015191 0.000000 -0.015191
v -0.015191 0.000000 0.015191
v 0.007967 0.068516 -0.007967
v 0.000000 0.070089 -0.008326
v -0.007967 0.068516 -0.007967
v 0.008326 0.070089 0.000000
v 0.000000 0.071780 0.000000
v -0.008326 0.070089 0.000000
v 0.007967 0.068516 0.007967
v 0.000000 0.070089 0.008326
v -0.007967 0.068516 0.007967
v 0.000000 0.000000 0.000000
v -0.011022 0.075174 -0.011022
v -0.011022 0.075174 0.011022
v 0.011022 0.075174 -0.011022
v 0.011022 0.075174 0.011022
v -0.012596 0.079469 -0.012596
v -0.012540 0.073460 -0.006477
v -0.013474 0.072598 0.000000
v -0.012540 0.073460 0.006477
v -0.012596 0.079469 0.012596
v -0.013474 0.086072 0.013474
v -0.006477 0.073460 0.012541
v 0.000000 0.072598 0.013474
v 0.006477 0.073460 0.012541
v 0.012596 0.079469 0.012596
v 0.013474 0.086072 0.013474
v 0.012541 0.073460 0.006477
v 0.013474 0.072598 0.000000
v 0.012541 0.073460 -0.006477
v 0.012596 0.079469 -0.012596
v 0.006477 0.073460 -0.012540
v 0.000000 0.072598 -0.013474
v -0.006477 0.073460 -0.012540
v -0.016217 0.078950 -0.006935
v -0.017555 0.078688 0.000000
v -0.016217 0.078950 0.006935
v -0.006934 0.078950 0.016217
v 0.000000 0.078688 0.017555
v 0.006935 0.078950 0.016217
v 0.016217 0.078950 0.006935
v 0.017555 0.078688 0.000000
v 0.016217 0.078950 -0.006935
v 0.006935 0.078950 -0.016217
v 0.000000 0.086072 -0.019055
v 0.000000 0.078688 -0.017555
v -0.006934 0.078950 -0.016217
v 0.007067 0.069912 0.007066
v 0.000000 0.068517 0.007385
v -0.007066 0.069912 0.007066
v 0.007385 0.068517 0.000000
v 0.000000 0.067017 0.000000
v -0.007384 0.068517 0.000000
v 0.007067 0.069912 -0.007066
v 0.000000 0.068517 -0.007384
v -0.007066 0.069912 -0.007066
v -0.011022 0.096971 0.011022
v -0.011022 0.096971 -0.011022
v 0.011022 0.096971 0.011022
v 0.011022 0.096971 -0.011022
v -0.012596 0.092676 0.012596
v -0.012540 0.098685 0.006477
v -0.013474 0.099546 0.000000
v -0.012540 0.098685 -0.006477
v -0.012596 0.092676 -0.012596
v -0.013474 0.086072 -0.013474
v -0.006477 0.098685 -0.012540
v 0.000000 0.099546 -0.013474
v 0.006477 0.098685 -0.012540
v 0.012596 0.092676 -0.012596
v 0.013474 0.086072 -0.013474
v 0.012541 0.098685 -0.006477
v 0.013474 0.099546 0.000000
v 0.012541 0.098685 0.006477
v 0.012596 0.092676 0.012596
v 0.006477 0.098685 0.012541
v 0.000000 0.099546 0.013474
v -0.006477 0.098685 0.012541
v -0.017555 0.086072 0.007385
v -0.016217 0.093195 0.006935
v -0.019055 0.086072 0.000000
v -0.017555 0.093457 0.000000
v -0.017555 0.086072 -0.007384
v -0.016217 0.093195 -0.006935
v -0.007384 0.086072 -0.017555
v -0.006934 0.093195 -0.016217
v 0.000000 0.093457 -0.017555
v 0.007385 0.086072 -0.017555
v 0.006935 0.093195 -0.016217
v 0.017555 0.086072 -0.007385
v 0.016217 0.093195 -0.006935
v 0.019055 0.086072 0.000000
v 0.017555 0.093457 0.000000
v 0.017555 0.086072 0.007385
v 0.016217 0.093195 0.006935
v 0.007385 0.086072 0.017555
v 0.006935 0.093195 0.016217
v 0.000000 0.086072 0.019055
v 0.000000 0.093457 0.017555
v -0.007384 0.086072 0.017555
v -0.006934 0.093195 0.016217
v 0.007067 0.102233 -0.007066
v 0.000000 0.103628 -0.007385
v -0.007066 0.102233 -0.007066
v 0.007385 0.103628 0.000000
v 0.000000 0.105128 0.000000
v -0.007384 0.103628 0.000000
v 0.007067 0.102233 0.007066
v 0.000000 0.103628 0.007385
v -0.007066 0.102233 0.007066
vt 0.474152 0.006946
vt 0.487444 0.067389
vt 0.443195 0.089860
vt 0.404007 0.035322
vt 0.407782 0.124629
vt 0.354737 0.092749
vt 0.544527 0.006946
vt 0.535573 0.061617
vt 0.530277 0.093950
vt 0.502454 0.107546
vt 0.470372 0.127684
vt 0.441052 0.151665
vt 0.419291 0.173697
vt 0.386958 0.168401
vt 0.332286 0.159447
vt 0.332286 0.229822
vt 0.392730 0.216530
vt 0.415201 0.260779
vt 0.360662 0.299967
vt 0.449969 0.296192
vt 0.418090 0.349237
vt 0.432887 0.201520
vt 0.453025 0.233602
vt 0.477006 0.262922
vt 0.499038 0.284683
vt 0.493742 0.317016
vt 0.484787 0.371688
vt 0.555162 0.371688
vt 0.541870 0.311244
vt 0.586120 0.288773
vt 0.625307 0.343312
vt 0.621533 0.254005
vt 0.674578 0.285884
vt 0.526860 0.271087
vt 0.558942 0.250950
vt 0.588262 0.226968
vt 0.610024 0.204936
vt 0.642357 0.210232
vt 0.697029 0.219187
vt 0.697029 0.148812
vt 0.636585 0.162104
vt 0.614114 0.117854
vt 0.668652 0.078667
vt 0.579345 0.082442
vt 0.611225 0.029396
vt 0.596428 0.177114
vt 0.576290 0.145032
vt 0.552309 0.115712
vt 0.867422 0.267693
vt 0.814813 0.267693
vt 0.841293 0.137319
vt 0.914757 0.248232
vt 0.318395 0.577068
vt 0.318395 0.629677
vt 0.006946 0.629677
vt 0.006946 0.577068
vt 0.318395 0.006946
vt 0.318395 0.059555
vt 0.006946 0.059555
vt 0.006945 0.006946
vt 0.318395 0.474709
vt 0.318395 0.525889
vt 0.006946 0.525889
vt 0.006946 0.474709
vt 0.318395 0.110734
vt 0.318395 0.161914
vt 0.006946 0.161914
vt 0.006946 0.110734
vt 0.318395 0.369491
vt 0.318395 0.422100
vt 0.006946 0.422100
vt 0.006946 0.369491
vt 0.318395 0.682286
vt 0.006945 0.682286
vt 0.318395 0.267132
vt 0.318395 0.318311
vt 0.006946 0.318311
vt 0.006946 0.267132
vt 0.318395 0.733466
vt 0.318395 0.784645
vt 0.006946 0.784645
vt 0.006946 0.733466
vt 0.318395 0.214523
vt 0.006946 0.214523
vt 0.318395 0.837255
vt 0.006946 0.837255
vt 0.506184 0.241054
vt 0.484218 0.211189
vt 0.514657 0.189317
vt 0.536529 0.219756
vt 0.462921 0.180843
vt 0.492786 0.158877
vt 0.545097 0.167445
vt 0.566394 0.197791
vt 0.523131 0.137580
vt 0.766372 0.247169
vt 0.730380 0.210783
vt 0.710920 0.163448
vt 0.710920 0.110839
vt 0.731444 0.062398
vt 0.767830 0.026406
vt 0.815165 0.006946
vt 0.867774 0.006946
vt 0.916215 0.027470
vt 0.952207 0.063856
vt 0.971667 0.111191
vt 0.971667 0.163800
vt 0.951143 0.212240
vt 0.858335 0.527918
vt 0.876768 0.555365
vt 0.850721 0.574306
vt 0.831335 0.547299
vt 0.824443 0.592925
vt 0.804335 0.566681
vt 0.886031 0.508037
vt 0.904351 0.536839
vt 0.915196 0.560573
vt 0.896934 0.581106
vt 0.870589 0.601984
vt 0.842381 0.620266
vt 0.817085 0.631000
vt 0.798068 0.613132
vt 0.776640 0.586561
vt 0.743081 0.610651
vt 0.774221 0.643663
vt 0.745723 0.689082
vt 0.694466 0.645547
vt 0.357136 0.449052
vt 0.408392 0.405517
vt 0.436891 0.450936
vt 0.405751 0.483948
vt 0.812949 0.661312
vt 0.804774 0.709020
vt 0.467443 0.385579
vt 0.475618 0.433287
vt 0.479755 0.463599
vt 0.460738 0.481467
vt 0.439310 0.508037
vt 0.467005 0.527918
vt 0.487113 0.501674
vt 0.513392 0.520292
vt 0.494006 0.547299
vt 0.539438 0.539234
vt 0.521006 0.566680
vt 0.505051 0.474333
vt 0.533259 0.492614
vt 0.559605 0.513492
vt 0.577867 0.534025
vt 0.567021 0.557759
vt 0.548701 0.586561
vt 0.582260 0.610650
vt 0.603575 0.570586
vt 0.655725 0.583057
vt 0.630875 0.645547
vt 0.968204 0.449051
vt 0.993055 0.511541
vt 0.940905 0.524013
vt 0.919589 0.483948
vt 0.607909 0.528248
vt 0.655725 0.520732
vt 0.993055 0.573867
vt 0.945238 0.566351
vt 0.517283 0.438644
vt 0.529863 0.385640
vt 0.592137 0.410592
vt 0.557324 0.459090
vt 0.867193 0.708958
vt 0.854613 0.655955
vt 0.894654 0.635508
vt 0.929467 0.684006
vt 0.635699 0.461612
vt 0.589505 0.490486
vt 0.926835 0.604112
vt 0.973029 0.632986
vt 0.785903 0.539234
vt 0.811949 0.520293
vt 0.838227 0.501674
vt 0.758320 0.557760
vt 0.747474 0.534026
vt 0.765736 0.513493
vt 0.792081 0.492615
vt 0.820290 0.474333
vt 0.845586 0.463599
vt 0.864603 0.481467
vt 0.888449 0.450936
vt 0.916948 0.405517
vt 0.579619 0.689082
vt 0.551120 0.643662
vt 0.849722 0.433287
vt 0.857897 0.385579
vt 0.520568 0.709020
vt 0.512393 0.661311
vt 0.508256 0.631000
vt 0.527274 0.613132
vt 0.500898 0.592925
vt 0.474620 0.574306
vt 0.448573 0.555365
vt 0.482960 0.620266
vt 0.454752 0.601984
vt 0.428407 0.581106
vt 0.410145 0.560573
vt 0.420990 0.536839
vt 0.384436 0.524013
vt 0.332286 0.511541
vt 0.669616 0.583058
vt 0.721765 0.570586
vt 0.380103 0.566351
vt 0.332286 0.573867
vt 0.669616 0.520732
vt 0.717432 0.528248
vt 0.470728 0.655955
vt 0.458149 0.708959
vt 0.395874 0.684006
vt 0.430687 0.635508
vt 0.795478 0.385640
vt 0.808057 0.438644
vt 0.768017 0.459091
vt 0.733204 0.410593
vt 0.352312 0.632987
vt 0.398506 0.604113
vt 0.735836 0.490487
vt 0.689641 0.461613
vn -0.9193 0.0958 0.3817
vn -0.8621 0.3622 0.3543
vn -0.9237 0.3830 -0.0000
vn -0.9952 0.0982 -0.0000
vn -0.8621 0.3622 -0.3543
vn -0.9193 0.0958 -0.3817
vn -0.7040 0.0935 0.7040
vn -0.6665 0.3341 0.6665
vn -0.5762 0.5796 0.5762
vn -0.6649 0.6707 0.3287
vn -0.7060 0.7082 -0.0000
vn -0.6649 0.6707 -0.3287
vn -0.5762 0.5796 -0.5762
vn -0.6665 0.3341 -0.6665
vn -0.7040 0.0935 -0.7040
vn -0.3817 0.0958 -0.9193
vn -0.3543 0.3622 -0.8621
vn -0.0000 0.3830 -0.9237
vn -0.0000 0.0982 -0.9952
vn 0.3543 0.3622 -0.8621
vn 0.3817 0.0958 -0.9193
vn -0.3287 0.6707 -0.6649
vn -0.0000 0.7082 -0.7060
vn 0.3287 0.6707 -0.6649
vn 0.5762 0.5796 -0.5762
vn 0.6665 0.3341 -0.6665
vn 0.7040 0.0935 -0.7040
vn 0.9193 0.0958 -0.3817
vn 0.8621 0.3622 -0.3543
vn 0.9237 0.3830 0.0000
vn 0.9952 0.0982 0.0000
vn 0.8621 0.3622 0.3543
vn 0.9193 0.0958 0.3817
vn 0.6649 0.6707 -0.3287
vn 0.7060 0.7082 0.0000
vn 0.6649 0.6707 0.3287
vn 0.5762 0.5796 0.5762
vn 0.6665 0.3341 0.6665
vn 0.7040 0.0935 0.7040
vn 0.3817 0.0958 0.9193
vn 0.3543 0.3622 0.8621
vn 0.0000 0.3830 0.9237
vn -0.0000 0.0982 0.9952
vn -0.3543 0.3622 0.8621
vn -0.3817 0.0958 0.9193
vn 0.3287 0.6707 0.6649
vn 0.0000 0.7082 0.7060
vn -0.3287 0.6707 0.6649
vn -0.0000 -1.0000 0.0000
vn -1.0000 0.0000 -0.0000
vn -0.9228 0.0000 0.3852
vn 0.3852 0.0000 -0.9228
vn -0.0000 0.0000 -1.0000
vn -0.7071 0.0000 0.7071
vn -0.3852 0.0000 0.9228
vn 0.9228 0.0000 -0.3852
vn 0.7071 0.0000 -0.7071
vn -0.0000 0.0000 1.0000
vn 0.3852 0.0000 0.9228
vn -0.9228 0.0000 -0.3852
vn 0.7071 0.0000 0.7071
vn 0.9228 0.0000 0.3852
vn -0.3852 0.0000 -0.9228
vn -0.7071 0.0000 -0.7071
vn 1.0000 0.0000 0.0000
vn 0.3606 0.8602 -0.3606
vn -0.0000 0.9239 -0.3826
vn -0.0000 1.0000 0.0000
vn 0.3826 0.9239 0.0000
vn -0.3606 0.8602 -0.3606
vn -0.3826 0.9239 -0.0000
vn -0.0000 0.9239 0.3826
vn 0.3606 0.8602 0.3606
vn -0.3606 0.8602 0.3606
vn -0.9243 0.0000 -0.3817
vn -0.8621 -0.3622 -0.3543
vn -0.9237 -0.3830 0.0000
vn -0.8621 -0.3622 0.3543
vn -0.9243 0.0000 0.3817
vn -0.6665 -0.3341 -0.6665
vn -0.5762 -0.5796 -0.5762
vn -0.6649 -0.6707 -0.3287
vn -0.7060 -0.7082 -0.0000
vn -0.6649 -0.6707 0.3287
vn -0.5762 -0.5796 0.5762
vn -0.6665 -0.3341 0.6665
vn -0.3817 0.0000 0.9243
vn -0.3543 -0.3622 0.8621
vn -0.0000 -0.3830 0.9237
vn 0.3543 -0.3622 0.8621
vn 0.3817 0.0000 0.9243
vn -0.3287 -0.6707 0.6649
vn -0.0000 -0.7082 0.7060
vn 0.3287 -0.6707 0.6649
vn 0.5762 -0.5796 0.5762
vn 0.6665 -0.3341 0.6665
vn 0.9243 0.0000 0.3817
vn 0.8621 -0.3622 0.3543
vn 0.9237 -0.3830 0.0000
vn 0.8621 -0.3622 -0.3543
vn 0.9243 0.0000 -0.3817
vn 0.6649 -0.6707 0.3287
vn 0.7060 -0.7082 0.0000
vn 0.6649 -0.6707 -0.3287
vn 0.5762 -0.5796 -0.5762
vn 0.6665 -0.3341 -0.6665
vn 0.3817 -0.0000 -0.9243
vn 0.3543 -0.3622 -0.8621
vn -0.0000 -0.3830 -0.9237
vn -0.3543 -0.3622 -0.8621
vn -0.3817 -0.0000 -0.9243
vn 0.3287 -0.6707 -0.6649
vn 0.0000 -0.7082 -0.7060
vn -0.3287 -0.6707 -0.6649
vn 0.3606 -0.8602 0.3606
vn -0.0000 -0.9239 0.3826
vn 0.3826 -0.9239 -0.0000
vn -0.3606 -0.8602 0.3606
vn -0.3826 -0.9239 -0.0000
vn -0.0000 -0.9239 -0.3826
vn 0.3606 -0.8602 -0.3606
vn -0.3606 -0.8602 -0.3606
vn -0.6650 0.6707 0.3287
vn 0.6650 0.6707 -0.3287
vn 0.6650 0.6707 0.3287
vn 0.3287 0.6707 0.6650
vn -0.3287 0.6707 0.6650
s 1
f 25/1/1 26/2/2 28/3/3 27/4/4
f 27/4/4 28/3/3 30/5/5 29/6/6
f 5/7/7 6/8/8 26/2/2 25/1/1
f 6/8/8 1/9/9 7/10/10 26/2/2
f 26/2/2 7/10/10 8/11/11 28/3/3
f 28/3/3 8/11/11 9/12/12 30/5/5
f 30/5/5 9/12/12 2/13/13 10/14/14
f 29/6/6 30/5/5 10/14/14 11/15/15
f 31/16/16 32/17/17 34/18/18 33/19/19
f 33/19/19 34/18/18 37/20/20 36/21/21
f 11/15/15 10/14/14 32/17/17 31/16/16
f 10/14/14 2/13/13 12/22/22 32/17/17
f 32/17/17 12/22/22 13/23/23 34/18/18
f 34/18/18 13/23/23 14/24/24 37/20/20
f 37/20/20 14/24/24 4/25/25 15/26/26
f 36/21/21 37/20/20 15/26/26 16/27/27
f 39/28/28 40/29/29 43/30/30 42/31/31
f 42/31/31 43/30/30 46/32/32 45/33/33
f 16/27/27 15/26/26 40/29/29 39/28/28
f 15/26/26 4/25/25 17/34/34 40/29/29
f 40/29/29 17/34/34 18/35/35 43/30/30
f 43/30/30 18/35/35 19/36/36 46/32/32
f 46/32/32 19/36/36 3/37/37 20/38/38
f 45/33/33 46/32/32 20/38/38 21/39/39
f 48/40/40 49/41/41 52/42/42 51/43/43
f 51/43/43 52/42/42 55/44/44 54/45/45
f 21/39/39 20/38/38 49/41/41 48/40/40
f 20/38/38 3/37/37 22/46/46 49/41/41
f 49/41/41 22/46/46 23/47/47 52/42/42
f 52/42/42 23/47/47 24/48/48 55/44/44
f 55/44/44 24/48/48 1/9/9 6/8/8
f 54/45/45 55/44/44 6/8/8 5/7/7
f 60/49/49 59/50/49 74/51/49 64/52/49
f 25/53/1 27/54/4 59/55/50 60/56/51
f 33/57/19 36/58/21 53/59/52 56/60/53
f 54/61/45 5/62/7 64/63/54 35/64/55
f 16/65/27 39/66/28 50/67/56 62/68/57
f 48/69/40 51/70/43 38/71/58 41/72/59
f 27/54/4 29/73/6 58/74/60 59/55/50
f 45/75/33 21/76/39 61/77/61 44/78/62
f 11/79/15 31/80/16 57/81/63 63/82/64
f 39/66/28 42/83/31 47/84/65 50/67/56
f 36/58/21 16/65/27 62/68/57 53/59/52
f 51/70/43 54/61/45 35/64/55 38/71/58
f 5/62/7 25/53/1 60/56/51 64/63/54
f 31/80/16 33/85/19 56/86/53 57/81/63
f 42/83/31 45/75/33 44/78/62 47/84/65
f 29/73/6 11/79/15 63/82/64 58/74/60
f 21/76/39 48/69/40 41/72/59 61/77/61
f 65/87/66 66/88/67 69/89/68 68/90/69
f 66/88/67 67/91/70 70/92/71 69/89/68
f 68/90/69 69/89/68 72/93/72 71/94/73
f 69/89/68 70/92/71 73/95/74 72/93/72
f 4/25/25 14/24/24 65/87/66 17/34/34
f 14/24/24 13/23/23 66/88/67 65/87/66
f 13/23/23 12/22/22 67/91/70 66/88/67
f 12/22/22 2/13/13 9/12/12 67/91/70
f 67/91/70 9/12/12 8/11/11 70/92/71
f 70/92/71 8/11/11 7/10/10 73/95/74
f 73/95/74 7/10/10 1/9/9 24/48/48
f 72/93/72 73/95/74 24/48/48 23/47/47
f 71/94/73 72/93/72 23/47/47 22/46/46
f 19/36/36 71/94/73 22/46/46 3/37/37
f 18/35/35 68/90/69 71/94/73 19/36/36
f 17/34/34 65/87/66 68/90/69 18/35/35
f 58/96/49 63/97/49 74/51/49 59/50/49
f 57/98/49 56/99/49 74/51/49 63/97/49
f 53/100/49 62/101/49 74/51/49 56/99/49
f 50/102/49 47/103/49 74/51/49 62/101/49
f 44/104/49 61/105/49 74/51/49 47/103/49
f 41/106/49 38/107/49 74/51/49 61/105/49
f 35/108/49 64/52/49 74/51/49 38/107/49
f 145/109/75 97/110/76 98/111/77 143/112/50
f 143/112/50 98/111/77 99/113/78 141/114/79
f 128/115/64 79/116/80 97/110/76 145/109/75
f 79/116/80 75/117/81 80/118/82 97/110/76
f 97/110/76 80/118/82 81/119/83 98/111/77
f 98/111/77 81/119/83 82/120/84 99/113/78
f 99/113/78 82/120/84 76/121/85 83/122/86
f 141/114/79 99/113/78 83/122/86 84/123/54
f 162/124/87 100/125/88 101/126/89 160/127/58
f 160/128/58 101/129/89 102/130/90 158/131/91
f 84/123/54 83/122/86 100/125/88 162/124/87
f 83/122/86 76/121/85 85/132/92 100/125/88
f 100/125/88 85/132/92 86/133/93 101/126/89
f 101/129/89 86/134/93 87/135/94 102/130/90
f 102/130/90 87/135/94 78/136/95 88/137/96
f 158/131/91 102/130/90 88/137/96 89/138/61
f 156/139/97 103/140/98 104/141/99 154/142/65
f 154/142/65 104/141/99 105/143/100 152/144/101
f 89/138/61 88/137/96 103/140/98 156/139/97
f 88/137/96 78/136/95 90/145/102 103/140/98
f 103/140/98 90/145/102 91/146/103 104/141/99
f 104/141/99 91/146/103 92/147/104 105/143/100
f 105/143/100 92/147/104 77/148/105 93/149/106
f 152/144/101 105/143/100 93/149/106 133/150/57
f 150/151/107 106/152/108 108/153/109 107/154/53
f 107/155/53 108/156/109 109/157/110 147/158/111
f 133/150/57 93/149/106 106/152/108 150/151/107
f 93/149/106 77/148/105 94/159/112 106/152/108
f 106/152/108 94/159/112 95/160/113 108/153/109
f 108/156/109 95/161/113 96/162/114 109/157/110
f 109/157/110 96/162/114 75/117/81 79/116/80
f 147/158/111 109/157/110 79/116/80 128/115/64
f 110/163/115 111/164/116 114/165/49 113/166/117
f 111/167/116 112/168/118 115/169/119 114/170/49
f 113/166/117 114/165/49 117/171/120 116/172/121
f 114/170/49 115/169/119 118/173/122 117/174/120
f 78/136/95 87/135/94 110/163/115 90/145/102
f 87/135/94 86/134/93 111/164/116 110/163/115
f 86/133/93 85/132/92 112/168/118 111/167/116
f 85/132/92 76/121/85 82/120/84 112/168/118
f 112/168/118 82/120/84 81/119/83 115/169/119
f 115/169/119 81/119/83 80/118/82 118/173/122
f 118/173/122 80/118/82 75/117/81 96/162/114
f 117/174/120 118/173/122 96/162/114 95/161/113
f 116/172/121 117/171/120 95/160/113 94/159/112
f 92/147/104 116/172/121 94/159/112 77/148/105
f 91/146/103 113/166/117 116/172/121 92/147/104
f 90/145/102 110/163/115 113/166/117 91/146/103
f 141/114/79 142/175/2 144/176/3 143/112/50
f 143/112/50 144/176/3 146/177/5 145/109/75
f 84/123/54 123/178/8 142/175/2 141/114/79
f 123/178/8 119/179/9 124/180/123 142/175/2
f 142/175/2 124/180/123 125/181/11 144/176/3
f 144/176/3 125/181/11 126/182/12 146/177/5
f 146/177/5 126/182/12 120/183/13 127/184/14
f 145/109/75 146/177/5 127/184/14 128/115/64
f 147/158/111 148/185/17 149/186/18 107/155/53
f 107/154/53 149/187/18 151/188/20 150/151/107
f 128/115/64 127/184/14 148/185/17 147/158/111
f 127/184/14 120/183/13 129/189/22 148/185/17
f 148/185/17 129/189/22 130/190/23 149/186/18
f 149/187/18 130/191/23 131/192/24 151/188/20
f 151/188/20 131/192/24 122/193/25 132/194/26
f 150/151/107 151/188/20 132/194/26 133/150/57
f 152/144/101 153/195/29 155/196/30 154/142/65
f 154/142/65 155/196/30 157/197/32 156/139/97
f 133/150/57 132/194/26 153/195/29 152/144/101
f 132/194/26 122/193/25 134/198/124 153/195/29
f 153/195/29 134/198/124 135/199/35 155/196/30
f 155/196/30 135/199/35 136/200/125 157/197/32
f 157/197/32 136/200/125 121/201/37 137/202/38
f 156/139/97 157/197/32 137/202/38 89/138/61
f 158/131/91 159/203/41 161/204/42 160/128/58
f 160/127/58 161/205/42 163/206/44 162/124/87
f 89/138/61 137/202/38 159/203/41 158/131/91
f 137/202/38 121/201/37 138/207/126 159/203/41
f 159/203/41 138/207/126 139/208/47 161/204/42
f 161/205/42 139/209/47 140/210/127 163/206/44
f 163/206/44 140/210/127 119/179/9 123/178/8
f 162/124/87 163/206/44 123/178/8 84/123/54
f 164/211/66 165/212/67 168/213/68 167/214/69
f 165/215/67 166/216/70 169/217/71 168/218/68
f 167/214/69 168/213/68 171/219/72 170/220/73
f 168/218/68 169/217/71 172/221/74 171/222/72
f 122/193/25 131/192/24 164/211/66 134/198/124
f 131/192/24 130/191/23 165/212/67 164/211/66
f 130/190/23 129/189/22 166/216/70 165/215/67
f 129/189/22 120/183/13 126/182/12 166/216/70
f 166/216/70 126/182/12 125/181/11 169/217/71
f 169/217/71 125/181/11 124/180/123 172/221/74
f 172/221/74 124/180/123 119/179/9 140/210/127
f 171/222/72 172/221/74 140/210/127 139/209/47
f 170/220/73 171/219/72 139/208/47 138/207/126
f 136/200/125 170/220/73 138/207/126 121/201/37
f 135/199/35 167/214/69 170/220/73 136/200/125
f 134/198/124 164/211/66 167/214/69 135/199/35
